<svg id="svg" version="1.1" xmlns="http://www.w3.org/2000/svg" xmlns:xlink="http://www.w3.org/1999/xlink" width="48.48" height="39.25" viewBox="0, 0, 400,400"><g id="svgg"><path id="path0" d="M143.667 104.543 C 140.516 105.685,140.819 95.571,140.809 199.914 C 140.799 303.385,140.539 294.179,143.507 295.419 C 145.319 296.176,165.115 296.267,167.234 295.528 C 170.196 294.496,169.972 297.750,169.987 255.522 C 170.002 211.593,170.150 208.550,172.652 200.823 C 178.457 182.892,199.019 174.146,217.356 181.807 C 219.064 182.521,223.945 187.242,224.792 189.000 C 225.111 189.660,225.660 190.650,226.013 191.200 C 226.694 192.260,227.844 195.542,228.466 198.200 C 229.889 204.282,229.961 206.763,229.981 250.114 C 230.002 297.625,229.802 294.257,232.669 295.455 C 234.611 296.266,254.537 296.236,256.493 295.419 C 259.438 294.188,259.235 297.973,259.057 247.701 C 258.904 204.354,258.795 200.205,257.653 194.000 C 255.542 182.528,251.213 173.084,244.980 166.350 C 243.245 164.476,239.459 161.200,239.028 161.200 C 238.884 161.200,238.401 160.860,237.954 160.443 C 237.080 159.629,231.490 156.793,229.200 156.003 C 228.430 155.737,227.440 155.371,227.000 155.190 C 226.560 155.009,225.660 154.749,225.000 154.612 C 224.340 154.476,223.080 154.189,222.200 153.975 C 212.808 151.689,198.280 152.612,189.700 156.040 C 189.205 156.238,188.395 156.557,187.900 156.749 C 184.877 157.923,177.786 162.023,176.800 163.168 C 175.120 165.119,170.669 168.438,170.369 167.963 C 170.168 167.646,170.010 154.090,170.006 136.970 L 170.000 106.539 169.064 105.660 C 168.549 105.177,167.515 104.605,166.767 104.390 C 164.761 103.815,145.323 103.944,143.667 104.543 " stroke="none" fill="#fafafa" fill-rule="evenodd"></path><path id="path1" d="M95.486 2.674 C 94.119 4.145,91.486 6.800,89.636 8.574 C 87.786 10.348,84.096 14.023,81.436 16.741 C 78.776 19.458,75.091 23.148,73.246 24.941 C 71.402 26.733,67.532 30.607,64.646 33.550 C 61.761 36.492,57.885 40.362,56.033 42.150 C 54.182 43.937,50.492 47.629,47.833 50.352 C 45.175 53.076,41.491 56.766,39.648 58.552 C 35.859 62.223,29.775 68.307,24.941 73.261 C 23.148 75.097,19.458 78.776,16.741 81.436 C 14.023 84.096,10.348 87.786,8.574 89.636 C 6.800 91.486,4.145 94.119,2.674 95.486 C 0.228 97.761,-0.000 98.110,-0.000 99.586 C 0.000 101.815,0.361 101.662,3.900 97.938 C 5.605 96.143,8.514 93.218,10.364 91.438 C 12.214 89.657,15.904 85.977,18.564 83.259 C 21.224 80.542,24.903 76.852,26.739 75.059 C 31.693 70.225,37.777 64.141,41.448 60.352 C 43.234 58.509,46.924 54.825,49.648 52.167 C 52.371 49.508,56.063 45.818,57.850 43.967 C 59.638 42.115,63.508 38.239,66.450 35.354 C 69.393 32.468,73.267 28.598,75.059 26.754 C 76.852 24.909,80.542 21.224,83.259 18.564 C 85.977 15.904,89.657 12.214,91.438 10.364 C 93.218 8.514,96.143 5.605,97.938 3.900 C 101.662 0.361,101.815 -0.000,99.586 0.000 C 98.110 0.000,97.761 0.228,95.486 2.674 M196.262 1.800 L 194.537 3.600 189.269 3.600 C 186.023 3.600,184.000 3.754,184.000 4.000 C 184.000 4.238,182.475 4.400,180.224 4.400 C 178.137 4.400,176.337 4.579,176.200 4.800 C 176.064 5.020,174.613 5.200,172.976 5.200 C 171.259 5.200,170.000 5.369,170.000 5.600 C 170.000 5.822,168.933 6.000,167.600 6.000 C 166.267 6.000,165.200 6.178,165.200 6.400 C 165.200 6.620,164.210 6.800,163.000 6.800 C 161.790 6.800,160.800 6.980,160.800 7.200 C 160.800 7.420,160.080 7.600,159.200 7.600 C 158.320 7.600,157.600 7.754,157.600 7.943 C 157.600 8.131,156.295 8.406,154.700 8.554 C 151.902 8.813,149.761 9.314,148.305 10.049 C 147.923 10.242,147.079 10.400,146.429 10.400 C 145.779 10.400,145.136 10.580,145.000 10.800 C 144.864 11.020,144.324 11.200,143.800 11.200 C 143.276 11.200,142.736 11.380,142.600 11.600 C 142.464 11.820,141.859 12.000,141.256 12.000 C 140.653 12.000,139.989 12.149,139.780 12.330 C 139.571 12.512,138.590 12.893,137.600 13.176 C 135.719 13.714,134.279 14.250,133.105 14.847 C 132.723 15.041,132.048 15.200,131.605 15.200 C 131.162 15.200,130.800 15.380,130.800 15.600 C 130.800 15.820,130.361 16.000,129.824 16.000 C 129.287 16.000,128.736 16.180,128.600 16.400 C 128.464 16.620,128.003 16.800,127.576 16.800 C 127.149 16.800,126.800 16.980,126.800 17.200 C 126.800 17.420,126.350 17.600,125.800 17.600 C 125.250 17.600,124.800 17.780,124.800 18.000 C 124.800 18.220,124.440 18.400,124.000 18.400 C 123.560 18.400,123.200 18.580,123.200 18.800 C 123.200 19.020,122.761 19.200,122.224 19.200 C 121.687 19.200,121.136 19.380,121.000 19.600 C 120.864 19.820,120.403 20.000,119.976 20.000 C 119.549 20.000,119.200 20.180,119.200 20.400 C 119.200 20.620,118.840 20.800,118.400 20.800 C 117.960 20.800,117.600 20.980,117.600 21.200 C 117.600 21.420,117.240 21.600,116.800 21.600 C 116.360 21.600,116.000 21.780,116.000 22.000 C 116.000 22.220,115.640 22.400,115.200 22.400 C 114.760 22.400,114.400 22.580,114.400 22.800 C 114.400 23.020,114.040 23.200,113.600 23.200 C 113.160 23.200,112.800 23.380,112.800 23.600 C 112.800 23.820,112.440 24.000,112.000 24.000 C 111.560 24.000,111.200 24.180,111.200 24.400 C 111.200 24.620,110.874 24.800,110.476 24.800 C 110.079 24.800,109.404 25.064,108.976 25.387 C 108.549 25.710,107.885 25.980,107.500 25.987 C 107.115 25.994,106.800 26.180,106.800 26.400 C 106.800 26.620,106.440 26.800,106.000 26.800 C 105.560 26.800,105.200 26.980,105.200 27.200 C 105.200 27.420,104.964 27.600,104.675 27.600 C 104.387 27.600,103.764 27.960,103.292 28.400 C 102.820 28.840,102.156 29.200,101.817 29.200 C 101.478 29.200,101.200 29.380,101.200 29.600 C 101.200 29.820,100.840 30.000,100.400 30.000 C 99.960 30.000,99.600 30.180,99.600 30.400 C 99.600 30.620,99.364 30.800,99.075 30.800 C 98.787 30.800,98.164 31.160,97.692 31.600 C 97.220 32.040,96.622 32.400,96.364 32.400 C 96.105 32.400,95.603 32.716,95.247 33.103 C 94.891 33.489,94.108 34.058,93.507 34.367 C 92.905 34.675,92.058 35.259,91.623 35.664 C 91.189 36.069,90.628 36.400,90.377 36.400 C 90.126 36.400,89.417 36.940,88.800 37.600 C 88.183 38.260,87.431 38.800,87.128 38.800 C 86.825 38.800,86.317 39.160,86.000 39.600 C 85.683 40.040,85.169 40.400,84.859 40.400 C 84.548 40.400,84.002 40.715,83.646 41.100 C 83.289 41.485,82.526 42.070,81.950 42.400 C 80.753 43.085,78.527 44.803,76.376 46.700 C 75.566 47.415,74.780 48.000,74.629 48.000 C 74.479 48.000,73.296 49.080,72.000 50.400 C 70.704 51.720,69.445 52.800,69.202 52.800 C 68.625 52.800,52.800 68.625,52.800 69.202 C 52.800 69.445,51.720 70.704,50.400 72.000 C 49.080 73.296,48.000 74.479,48.000 74.629 C 48.000 74.780,47.415 75.566,46.700 76.376 C 44.803 78.527,43.085 80.753,42.400 81.950 C 42.070 82.526,41.485 83.289,41.100 83.646 C 40.715 84.002,40.400 84.548,40.400 84.859 C 40.400 85.169,40.040 85.683,39.600 86.000 C 39.160 86.317,38.800 86.825,38.800 87.128 C 38.800 87.431,38.260 88.183,37.600 88.800 C 36.940 89.417,36.400 90.126,36.400 90.377 C 36.400 90.628,36.069 91.189,35.664 91.623 C 35.259 92.058,34.675 92.905,34.367 93.507 C 34.058 94.108,33.489 94.891,33.103 95.247 C 32.716 95.603,32.400 96.105,32.400 96.364 C 32.400 96.622,32.040 97.220,31.600 97.692 C 31.160 98.164,30.800 98.787,30.800 99.075 C 30.800 99.364,30.620 99.600,30.400 99.600 C 30.180 99.600,30.000 99.960,30.000 100.400 C 30.000 100.840,29.820 101.200,29.600 101.200 C 29.380 101.200,29.200 101.478,29.200 101.817 C 29.200 102.156,28.840 102.820,28.400 103.292 C 27.960 103.764,27.600 104.387,27.600 104.675 C 27.600 104.964,27.420 105.200,27.200 105.200 C 26.980 105.200,26.800 105.560,26.800 106.000 C 26.800 106.440,26.620 106.800,26.400 106.800 C 26.180 106.800,25.994 107.115,25.987 107.500 C 25.980 107.885,25.710 108.549,25.387 108.976 C 25.064 109.404,24.800 110.079,24.800 110.476 C 24.800 110.874,24.620 111.200,24.400 111.200 C 24.180 111.200,24.000 111.560,24.000 112.000 C 24.000 112.440,23.820 112.800,23.600 112.800 C 23.380 112.800,23.200 113.160,23.200 113.600 C 23.200 114.040,23.020 114.400,22.800 114.400 C 22.580 114.400,22.400 114.760,22.400 115.200 C 22.400 115.640,22.220 116.000,22.000 116.000 C 21.780 116.000,21.600 116.360,21.600 116.800 C 21.600 117.240,21.420 117.600,21.200 117.600 C 20.980 117.600,20.800 117.960,20.800 118.400 C 20.800 118.840,20.620 119.200,20.400 119.200 C 20.180 119.200,20.000 119.549,20.000 119.976 C 20.000 120.403,19.820 120.864,19.600 121.000 C 19.380 121.136,19.200 121.687,19.200 122.224 C 19.200 122.761,19.020 123.200,18.800 123.200 C 18.580 123.200,18.400 123.560,18.400 124.000 C 18.400 124.440,18.220 124.800,18.000 124.800 C 17.780 124.800,17.600 125.250,17.600 125.800 C 17.600 126.350,17.420 126.800,17.200 126.800 C 16.980 126.800,16.800 127.149,16.800 127.576 C 16.800 128.003,16.620 128.464,16.400 128.600 C 16.180 128.736,16.000 129.287,16.000 129.824 C 16.000 130.361,15.820 130.800,15.600 130.800 C 15.380 130.800,15.200 131.162,15.200 131.605 C 15.200 132.048,15.041 132.723,14.847 133.105 C 14.250 134.279,13.714 135.719,13.176 137.600 C 12.893 138.590,12.512 139.571,12.330 139.780 C 12.149 139.989,12.000 140.653,12.000 141.256 C 12.000 141.859,11.820 142.464,11.600 142.600 C 11.380 142.736,11.200 143.276,11.200 143.800 C 11.200 144.324,11.020 144.864,10.800 145.000 C 10.580 145.136,10.400 145.779,10.400 146.429 C 10.400 147.079,10.242 147.923,10.049 148.305 C 9.314 149.761,8.813 151.902,8.554 154.700 C 8.406 156.295,8.131 157.600,7.943 157.600 C 7.754 157.600,7.600 158.320,7.600 159.200 C 7.600 160.080,7.420 160.800,7.200 160.800 C 6.980 160.800,6.800 161.790,6.800 163.000 C 6.800 164.210,6.620 165.200,6.400 165.200 C 6.178 165.200,6.000 166.267,6.000 167.600 C 6.000 168.933,5.822 170.000,5.600 170.000 C 5.369 170.000,5.200 171.259,5.200 172.976 C 5.200 174.613,5.020 176.064,4.800 176.200 C 4.579 176.337,4.400 178.137,4.400 180.224 C 4.400 182.475,4.238 184.000,4.000 184.000 C 3.754 184.000,3.600 186.023,3.600 189.269 L 3.600 194.537 1.800 196.262 C 0.252 197.745,0.000 198.211,0.000 199.593 C -0.000 201.516,0.287 201.577,1.937 200.000 C 2.628 199.340,3.284 198.800,3.396 198.800 C 3.508 198.800,3.600 202.670,3.600 207.400 C 3.600 212.867,3.746 216.000,4.000 216.000 C 4.238 216.000,4.400 217.525,4.400 219.776 C 4.400 221.863,4.579 223.663,4.800 223.800 C 5.020 223.936,5.200 225.387,5.200 227.024 C 5.200 228.741,5.369 230.000,5.600 230.000 C 5.822 230.000,6.000 231.067,6.000 232.400 C 6.000 233.733,6.178 234.800,6.400 234.800 C 6.620 234.800,6.800 235.790,6.800 237.000 C 6.800 238.210,6.980 239.200,7.200 239.200 C 7.420 239.200,7.600 239.920,7.600 240.800 C 7.600 241.680,7.754 242.400,7.943 242.400 C 8.131 242.400,8.406 243.705,8.554 245.300 C 8.813 248.098,9.314 250.239,10.049 251.695 C 10.242 252.077,10.400 252.921,10.400 253.571 C 10.400 254.221,10.580 254.864,10.800 255.000 C 11.020 255.136,11.200 255.676,11.200 256.200 C 11.200 256.724,11.380 257.264,11.600 257.400 C 11.820 257.536,12.000 258.141,12.000 258.744 C 12.000 259.347,12.149 260.011,12.330 260.220 C 12.512 260.429,12.893 261.410,13.176 262.400 C 13.714 264.281,14.250 265.721,14.847 266.895 C 15.041 267.277,15.200 267.952,15.200 268.395 C 15.200 268.838,15.380 269.200,15.600 269.200 C 15.820 269.200,16.000 269.639,16.000 270.176 C 16.000 270.713,16.180 271.264,16.400 271.400 C 16.620 271.536,16.800 271.997,16.800 272.424 C 16.800 272.851,16.980 273.200,17.200 273.200 C 17.420 273.200,17.600 273.650,17.600 274.200 C 17.600 274.750,17.780 275.200,18.000 275.200 C 18.220 275.200,18.400 275.560,18.400 276.000 C 18.400 276.440,18.580 276.800,18.800 276.800 C 20.253 276.800,18.961 279.052,15.500 282.553 C 13.465 284.612,10.348 287.804,8.574 289.648 C 6.800 291.492,4.145 294.119,2.674 295.486 C 0.228 297.761,-0.000 298.110,-0.000 299.586 C 0.000 301.815,0.361 301.662,3.900 297.938 C 5.605 296.143,8.508 293.218,10.352 291.438 C 12.195 289.657,15.215 286.707,17.063 284.883 C 20.472 281.517,21.600 281.142,21.600 283.371 C 21.600 283.717,21.780 284.000,22.000 284.000 C 22.220 284.000,22.400 284.360,22.400 284.800 C 22.400 285.240,22.580 285.600,22.800 285.600 C 23.020 285.600,23.200 285.960,23.200 286.400 C 23.200 286.840,23.380 287.200,23.600 287.200 C 23.820 287.200,24.000 287.560,24.000 288.000 C 24.000 288.440,24.180 288.800,24.400 288.800 C 24.620 288.800,24.800 289.126,24.800 289.524 C 24.800 289.921,25.064 290.596,25.387 291.024 C 25.710 291.451,25.980 292.115,25.987 292.500 C 25.994 292.885,26.180 293.200,26.400 293.200 C 26.620 293.200,26.800 293.560,26.800 294.000 C 26.800 294.440,26.980 294.800,27.200 294.800 C 27.420 294.800,27.600 295.036,27.600 295.325 C 27.600 295.613,27.960 296.236,28.400 296.708 C 28.840 297.180,29.200 297.844,29.200 298.183 C 29.200 298.522,29.380 298.800,29.600 298.800 C 29.820 298.800,30.000 299.160,30.000 299.600 C 30.000 300.040,30.180 300.400,30.400 300.400 C 30.620 300.400,30.800 300.636,30.800 300.925 C 30.800 301.213,31.160 301.836,31.600 302.308 C 32.040 302.780,32.400 303.378,32.400 303.636 C 32.400 303.895,32.716 304.397,33.103 304.753 C 33.489 305.109,34.058 305.892,34.367 306.493 C 34.675 307.095,35.259 307.942,35.664 308.377 C 36.069 308.811,36.400 309.372,36.400 309.623 C 36.400 309.874,36.940 310.583,37.600 311.200 C 38.260 311.817,38.800 312.569,38.800 312.872 C 38.800 313.175,39.160 313.683,39.600 314.000 C 40.040 314.317,40.400 314.831,40.400 315.141 C 40.400 315.452,40.715 315.998,41.100 316.354 C 41.485 316.711,42.070 317.474,42.400 318.050 C 43.085 319.247,44.803 321.473,46.700 323.624 C 47.415 324.434,48.000 325.220,48.000 325.371 C 48.000 325.521,49.080 326.704,50.400 328.000 C 51.720 329.296,52.800 330.522,52.800 330.725 C 52.800 330.929,54.330 332.677,56.200 334.612 C 60.316 338.869,60.322 338.163,56.133 342.123 C 54.227 343.925,50.492 347.629,47.833 350.352 C 45.175 353.076,41.491 356.766,39.648 358.552 C 35.859 362.223,29.775 368.307,24.941 373.261 C 23.148 375.097,19.458 378.776,16.741 381.436 C 14.023 384.096,10.348 387.786,8.574 389.636 C 6.800 391.486,4.145 394.119,2.674 395.486 C 0.733 397.291,-0.000 398.250,-0.000 398.986 C 0.000 400.946,1.745 400.304,4.514 397.326 C 5.881 395.855,8.509 393.200,10.352 391.426 C 14.010 387.906,19.948 381.976,25.059 376.739 C 26.852 374.903,30.542 371.224,33.259 368.564 C 35.977 365.904,39.661 362.214,41.448 360.364 C 43.234 358.514,46.924 354.825,49.648 352.167 C 52.371 349.508,56.075 345.773,57.877 343.867 C 61.837 339.678,61.131 339.684,65.388 343.800 C 67.323 345.670,69.071 347.200,69.275 347.200 C 69.478 347.200,70.704 348.280,72.000 349.600 C 73.296 350.920,74.479 352.000,74.629 352.000 C 74.780 352.000,75.566 352.585,76.376 353.300 C 78.190 354.900,80.453 356.678,82.358 358.000 C 83.151 358.550,83.860 359.135,83.933 359.300 C 84.007 359.465,84.372 359.600,84.745 359.600 C 85.118 359.600,85.683 359.960,86.000 360.400 C 86.317 360.840,86.825 361.200,87.128 361.200 C 87.431 361.200,88.183 361.740,88.800 362.400 C 89.417 363.060,90.126 363.600,90.377 363.600 C 90.628 363.600,91.189 363.931,91.623 364.336 C 92.058 364.741,92.905 365.325,93.507 365.633 C 94.108 365.942,94.891 366.511,95.247 366.897 C 95.603 367.284,96.105 367.600,96.364 367.600 C 96.622 367.600,97.220 367.960,97.692 368.400 C 98.164 368.840,98.787 369.200,99.075 369.200 C 99.364 369.200,99.600 369.380,99.600 369.600 C 99.600 369.820,99.960 370.000,100.400 370.000 C 100.840 370.000,101.200 370.180,101.200 370.400 C 101.200 370.620,101.478 370.800,101.817 370.800 C 102.156 370.800,102.820 371.160,103.292 371.600 C 103.764 372.040,104.387 372.400,104.675 372.400 C 104.964 372.400,105.200 372.580,105.200 372.800 C 105.200 373.020,105.560 373.200,106.000 373.200 C 106.440 373.200,106.800 373.380,106.800 373.600 C 106.800 373.820,107.160 374.000,107.600 374.000 C 108.040 374.000,108.400 374.172,108.400 374.382 C 108.400 374.592,109.030 374.882,109.800 375.026 C 110.570 375.171,111.200 375.449,111.200 375.645 C 111.200 375.840,111.560 376.000,112.000 376.000 C 112.440 376.000,112.800 376.180,112.800 376.400 C 112.800 376.620,113.160 376.800,113.600 376.800 C 114.040 376.800,114.400 376.980,114.400 377.200 C 114.400 377.420,114.760 377.600,115.200 377.600 C 115.640 377.600,116.000 377.780,116.000 378.000 C 116.000 378.220,116.283 378.400,116.629 378.400 C 118.858 378.400,118.483 379.528,115.117 382.937 C 113.293 384.785,110.343 387.805,108.562 389.648 C 106.782 391.492,103.857 394.395,102.062 396.100 C 98.338 399.639,98.185 400.000,100.414 400.000 C 101.890 400.000,102.239 399.772,104.514 397.326 C 105.881 395.855,108.508 393.200,110.352 391.426 C 112.196 389.652,115.388 386.535,117.447 384.500 C 120.948 381.039,123.200 379.747,123.200 381.200 C 123.200 381.420,123.560 381.600,124.000 381.600 C 124.440 381.600,124.800 381.780,124.800 382.000 C 124.800 382.220,125.250 382.400,125.800 382.400 C 126.350 382.400,126.800 382.580,126.800 382.800 C 126.800 383.020,127.149 383.200,127.576 383.200 C 128.003 383.200,128.464 383.380,128.600 383.600 C 128.736 383.820,129.287 384.000,129.824 384.000 C 130.361 384.000,130.800 384.180,130.800 384.400 C 130.800 384.620,131.162 384.800,131.605 384.800 C 132.048 384.800,132.723 384.959,133.105 385.153 C 134.279 385.750,135.719 386.286,137.600 386.824 C 138.590 387.107,139.571 387.488,139.780 387.670 C 139.989 387.851,140.653 388.000,141.256 388.000 C 141.859 388.000,142.464 388.180,142.600 388.400 C 142.736 388.620,143.276 388.800,143.800 388.800 C 144.324 388.800,144.864 388.980,145.000 389.200 C 145.136 389.420,145.779 389.600,146.429 389.600 C 147.079 389.600,147.923 389.758,148.305 389.951 C 149.761 390.686,151.902 391.187,154.700 391.446 C 156.295 391.594,157.600 391.869,157.600 392.057 C 157.600 392.246,158.320 392.400,159.200 392.400 C 160.080 392.400,160.800 392.580,160.800 392.800 C 160.800 393.020,161.790 393.200,163.000 393.200 C 164.210 393.200,165.200 393.380,165.200 393.600 C 165.200 393.822,166.267 394.000,167.600 394.000 C 168.933 394.000,170.000 394.178,170.000 394.400 C 170.000 394.631,171.259 394.800,172.976 394.800 C 174.613 394.800,176.064 394.980,176.200 395.200 C 176.337 395.421,178.137 395.600,180.224 395.600 C 182.475 395.600,184.000 395.762,184.000 396.000 C 184.000 396.254,187.133 396.400,192.600 396.400 C 197.330 396.400,201.200 396.492,201.200 396.604 C 201.200 396.716,200.660 397.372,200.000 398.063 C 198.423 399.713,198.484 400.000,200.407 400.000 C 201.789 400.000,202.255 399.748,203.738 398.200 L 205.463 396.400 210.731 396.400 C 213.977 396.400,216.000 396.246,216.000 396.000 C 216.000 395.762,217.525 395.600,219.776 395.600 C 221.863 395.600,223.663 395.421,223.800 395.200 C 223.936 394.980,225.387 394.800,227.024 394.800 C 228.741 394.800,230.000 394.631,230.000 394.400 C 230.000 394.178,231.067 394.000,232.400 394.000 C 233.733 394.000,234.800 393.822,234.800 393.600 C 234.800 393.380,235.790 393.200,237.000 393.200 C 238.210 393.200,239.200 393.020,239.200 392.800 C 239.200 392.580,239.920 392.400,240.800 392.400 C 241.680 392.400,242.400 392.246,242.400 392.057 C 242.400 391.869,243.705 391.594,245.300 391.446 C 248.098 391.187,250.239 390.686,251.695 389.951 C 252.077 389.758,252.921 389.600,253.571 389.600 C 254.221 389.600,254.864 389.420,255.000 389.200 C 255.136 388.980,255.676 388.800,256.200 388.800 C 256.724 388.800,257.264 388.620,257.400 388.400 C 257.536 388.180,258.141 388.000,258.744 388.000 C 259.347 388.000,260.011 387.851,260.220 387.670 C 260.429 387.488,261.410 387.107,262.400 386.824 C 264.281 386.286,265.721 385.750,266.895 385.153 C 267.277 384.959,267.952 384.800,268.395 384.800 C 268.838 384.800,269.200 384.620,269.200 384.400 C 269.200 384.180,269.639 384.000,270.176 384.000 C 270.713 384.000,271.264 383.820,271.400 383.600 C 271.536 383.380,271.997 383.200,272.424 383.200 C 272.851 383.200,273.200 383.020,273.200 382.800 C 273.200 382.580,273.650 382.400,274.200 382.400 C 274.750 382.400,275.200 382.220,275.200 382.000 C 275.200 381.780,275.560 381.600,276.000 381.600 C 276.440 381.600,276.800 381.420,276.800 381.200 C 276.800 380.980,277.239 380.800,277.776 380.800 C 278.313 380.800,278.864 380.620,279.000 380.400 C 279.136 380.180,279.597 380.000,280.024 380.000 C 280.451 380.000,280.800 379.820,280.800 379.600 C 280.800 379.380,281.160 379.200,281.600 379.200 C 282.040 379.200,282.400 379.020,282.400 378.800 C 282.400 378.580,282.760 378.400,283.200 378.400 C 283.640 378.400,284.000 378.220,284.000 378.000 C 284.000 377.780,284.360 377.600,284.800 377.600 C 285.240 377.600,285.600 377.420,285.600 377.200 C 285.600 376.980,285.960 376.800,286.400 376.800 C 286.840 376.800,287.200 376.620,287.200 376.400 C 287.200 376.180,287.560 376.000,288.000 376.000 C 288.440 376.000,288.800 375.840,288.800 375.645 C 288.800 375.449,289.430 375.171,290.200 375.026 C 290.970 374.882,291.600 374.592,291.600 374.382 C 291.600 374.172,291.960 374.000,292.400 374.000 C 292.840 374.000,293.200 373.820,293.200 373.600 C 293.200 373.380,293.560 373.200,294.000 373.200 C 294.440 373.200,294.800 373.020,294.800 372.800 C 294.800 372.580,295.036 372.400,295.325 372.400 C 295.613 372.400,296.236 372.040,296.708 371.600 C 297.180 371.160,297.844 370.800,298.183 370.800 C 298.522 370.800,298.800 370.620,298.800 370.400 C 298.800 370.180,299.160 370.000,299.600 370.000 C 300.040 370.000,300.400 369.820,300.400 369.600 C 300.400 369.380,300.636 369.200,300.925 369.200 C 301.213 369.200,301.836 368.840,302.308 368.400 C 302.780 367.960,303.378 367.600,303.636 367.600 C 303.895 367.600,304.397 367.284,304.753 366.897 C 305.109 366.511,305.892 365.942,306.493 365.633 C 307.095 365.325,307.942 364.741,308.377 364.336 C 308.811 363.931,309.372 363.600,309.623 363.600 C 309.874 363.600,310.583 363.060,311.200 362.400 C 311.817 361.740,312.569 361.200,312.872 361.200 C 313.175 361.200,313.683 360.840,314.000 360.400 C 314.317 359.960,314.882 359.600,315.255 359.600 C 315.628 359.600,315.993 359.465,316.067 359.300 C 316.140 359.135,316.935 358.501,317.834 357.892 C 318.732 357.282,319.818 356.472,320.247 356.092 C 320.677 355.711,321.832 354.777,322.814 354.015 C 323.796 353.253,324.660 352.488,324.733 352.315 C 324.807 352.142,325.042 352.000,325.255 352.000 C 325.469 352.000,326.704 350.920,328.000 349.600 C 329.296 348.280,330.520 347.200,330.721 347.200 C 330.999 347.200,336.308 342.339,339.324 339.324 C 342.339 336.308,347.200 330.999,347.200 330.721 C 347.200 330.520,348.280 329.296,349.600 328.000 C 350.920 326.704,352.000 325.469,352.000 325.255 C 352.000 325.042,352.142 324.807,352.315 324.733 C 352.488 324.660,353.253 323.796,354.015 322.814 C 354.777 321.832,355.711 320.677,356.092 320.247 C 356.472 319.818,357.282 318.732,357.892 317.834 C 358.501 316.935,359.135 316.140,359.300 316.067 C 359.465 315.993,359.600 315.628,359.600 315.255 C 359.600 314.882,359.960 314.317,360.400 314.000 C 360.840 313.683,361.200 313.175,361.200 312.872 C 361.200 312.569,361.740 311.817,362.400 311.200 C 363.060 310.583,363.600 309.874,363.600 309.623 C 363.600 309.372,363.931 308.811,364.336 308.377 C 364.741 307.942,365.325 307.095,365.633 306.493 C 365.942 305.892,366.511 305.109,366.897 304.753 C 367.284 304.397,367.600 303.895,367.600 303.636 C 367.600 303.378,367.960 302.780,368.400 302.308 C 368.840 301.836,369.200 301.213,369.200 300.925 C 369.200 300.636,369.380 300.400,369.600 300.400 C 369.820 300.400,370.000 300.040,370.000 299.600 C 370.000 299.160,370.180 298.800,370.400 298.800 C 370.620 298.800,370.800 298.522,370.800 298.183 C 370.800 297.844,371.160 297.180,371.600 296.708 C 372.040 296.236,372.400 295.613,372.400 295.325 C 372.400 295.036,372.580 294.800,372.800 294.800 C 373.020 294.800,373.200 294.440,373.200 294.000 C 373.200 293.560,373.380 293.200,373.600 293.200 C 373.820 293.200,374.000 292.840,374.000 292.400 C 374.000 291.960,374.172 291.600,374.382 291.600 C 374.592 291.600,374.882 290.970,375.026 290.200 C 375.171 289.430,375.449 288.800,375.645 288.800 C 375.840 288.800,376.000 288.440,376.000 288.000 C 376.000 287.560,376.180 287.200,376.400 287.200 C 376.620 287.200,376.800 286.840,376.800 286.400 C 376.800 285.960,376.980 285.600,377.200 285.600 C 377.420 285.600,377.600 285.240,377.600 284.800 C 377.600 284.360,377.780 284.000,378.000 284.000 C 378.220 284.000,378.400 283.640,378.400 283.200 C 378.400 282.760,378.580 282.400,378.800 282.400 C 379.020 282.400,379.200 282.040,379.200 281.600 C 379.200 281.160,379.380 280.800,379.600 280.800 C 379.820 280.800,380.000 280.451,380.000 280.024 C 380.000 279.597,380.180 279.136,380.400 279.000 C 380.620 278.864,380.800 278.313,380.800 277.776 C 380.800 277.239,380.980 276.800,381.200 276.800 C 381.420 276.800,381.600 276.440,381.600 276.000 C 381.600 275.560,381.780 275.200,382.000 275.200 C 382.220 275.200,382.400 274.750,382.400 274.200 C 382.400 273.650,382.580 273.200,382.800 273.200 C 383.020 273.200,383.200 272.851,383.200 272.424 C 383.200 271.997,383.380 271.536,383.600 271.400 C 383.820 271.264,384.000 270.713,384.000 270.176 C 384.000 269.639,384.180 269.200,384.400 269.200 C 384.620 269.200,384.800 268.838,384.800 268.395 C 384.800 267.952,384.959 267.277,385.153 266.895 C 385.750 265.721,386.286 264.281,386.824 262.400 C 387.107 261.410,387.488 260.429,387.670 260.220 C 387.851 260.011,388.000 259.347,388.000 258.744 C 388.000 258.141,388.180 257.536,388.400 257.400 C 388.620 257.264,388.800 256.724,388.800 256.200 C 388.800 255.676,388.980 255.136,389.200 255.000 C 389.420 254.864,389.600 254.221,389.600 253.571 C 389.600 252.921,389.758 252.077,389.951 251.695 C 390.686 250.239,391.187 248.098,391.446 245.300 C 391.594 243.705,391.869 242.400,392.057 242.400 C 392.246 242.400,392.400 241.680,392.400 240.800 C 392.400 239.920,392.580 239.200,392.800 239.200 C 393.020 239.200,393.200 238.210,393.200 237.000 C 393.200 235.790,393.380 234.800,393.600 234.800 C 393.822 234.800,394.000 233.733,394.000 232.400 C 394.000 231.067,394.178 230.000,394.400 230.000 C 394.631 230.000,394.800 228.741,394.800 227.024 C 394.800 225.387,394.980 223.936,395.200 223.800 C 395.421 223.663,395.600 221.863,395.600 219.776 C 395.600 217.525,395.762 216.000,396.000 216.000 C 396.246 216.000,396.400 213.977,396.400 210.731 L 396.400 205.463 398.200 203.738 C 399.748 202.255,400.000 201.789,400.000 200.407 C 400.000 198.484,399.713 198.423,398.063 200.000 C 397.372 200.660,396.716 201.200,396.604 201.200 C 396.492 201.200,396.400 197.330,396.400 192.600 C 396.400 187.133,396.254 184.000,396.000 184.000 C 395.762 184.000,395.600 182.475,395.600 180.224 C 395.600 178.137,395.421 176.337,395.200 176.200 C 394.980 176.064,394.800 174.613,394.800 172.976 C 394.800 171.259,394.631 170.000,394.400 170.000 C 394.178 170.000,394.000 168.933,394.000 167.600 C 394.000 166.267,393.822 165.200,393.600 165.200 C 393.380 165.200,393.200 164.210,393.200 163.000 C 393.200 161.790,393.020 160.800,392.800 160.800 C 392.580 160.800,392.400 160.080,392.400 159.200 C 392.400 158.320,392.246 157.600,392.057 157.600 C 391.869 157.600,391.594 156.295,391.446 154.700 C 391.187 151.902,390.686 149.761,389.951 148.305 C 389.758 147.923,389.600 147.079,389.600 146.429 C 389.600 145.779,389.420 145.136,389.200 145.000 C 388.980 144.864,388.800 144.324,388.800 143.800 C 388.800 143.276,388.620 142.736,388.400 142.600 C 388.180 142.464,388.000 141.859,388.000 141.256 C 388.000 140.653,387.851 139.989,387.670 139.780 C 387.488 139.571,387.107 138.590,386.824 137.600 C 386.286 135.719,385.750 134.279,385.153 133.105 C 384.959 132.723,384.800 132.048,384.800 131.605 C 384.800 131.162,384.620 130.800,384.400 130.800 C 384.180 130.800,384.000 130.361,384.000 129.824 C 384.000 129.287,383.820 128.736,383.600 128.600 C 383.380 128.464,383.200 128.003,383.200 127.576 C 383.200 127.149,383.020 126.800,382.800 126.800 C 382.580 126.800,382.400 126.350,382.400 125.800 C 382.400 125.250,382.220 124.800,382.000 124.800 C 381.780 124.800,381.600 124.440,381.600 124.000 C 381.600 123.560,381.420 123.200,381.200 123.200 C 379.747 123.200,381.039 120.948,384.500 117.447 C 386.535 115.388,389.652 112.196,391.426 110.352 C 393.200 108.508,395.855 105.881,397.326 104.514 C 399.772 102.239,400.000 101.890,400.000 100.414 C 400.000 98.185,399.639 98.338,396.100 102.062 C 394.395 103.857,391.492 106.782,389.648 108.562 C 387.805 110.343,384.785 113.293,382.937 115.117 C 379.528 118.483,378.400 118.858,378.400 116.629 C 378.400 116.283,378.220 116.000,378.000 116.000 C 377.780 116.000,377.600 115.640,377.600 115.200 C 377.600 114.760,377.420 114.400,377.200 114.400 C 376.980 114.400,376.800 114.040,376.800 113.600 C 376.800 113.160,376.620 112.800,376.400 112.800 C 376.180 112.800,376.000 112.440,376.000 112.000 C 376.000 111.560,375.840 111.200,375.645 111.200 C 375.449 111.200,375.171 110.570,375.026 109.800 C 374.882 109.030,374.592 108.400,374.382 108.400 C 374.172 108.400,374.000 108.040,374.000 107.600 C 374.000 107.160,373.820 106.800,373.600 106.800 C 373.380 106.800,373.200 106.440,373.200 106.000 C 373.200 105.560,373.020 105.200,372.800 105.200 C 372.580 105.200,372.400 104.964,372.400 104.675 C 372.400 104.387,372.040 103.764,371.600 103.292 C 371.160 102.820,370.800 102.156,370.800 101.817 C 370.800 101.478,370.620 101.200,370.400 101.200 C 370.180 101.200,370.000 100.840,370.000 100.400 C 370.000 99.960,369.820 99.600,369.600 99.600 C 369.380 99.600,369.200 99.364,369.200 99.075 C 369.200 98.787,368.840 98.164,368.400 97.692 C 367.960 97.220,367.600 96.622,367.600 96.364 C 367.600 96.105,367.284 95.603,366.897 95.247 C 366.511 94.891,365.942 94.108,365.633 93.507 C 365.325 92.905,364.741 92.058,364.336 91.623 C 363.931 91.189,363.600 90.628,363.600 90.377 C 363.600 90.126,363.060 89.417,362.400 88.800 C 361.740 88.183,361.200 87.431,361.200 87.128 C 361.200 86.825,360.840 86.317,360.400 86.000 C 359.960 85.683,359.600 85.118,359.600 84.745 C 359.600 84.372,359.465 84.007,359.300 83.933 C 359.135 83.860,358.550 83.151,358.000 82.358 C 356.678 80.453,354.900 78.190,353.300 76.376 C 352.585 75.566,352.000 74.780,352.000 74.629 C 352.000 74.479,350.920 73.296,349.600 72.000 C 348.280 70.704,347.200 69.478,347.200 69.275 C 347.200 69.071,345.670 67.323,343.800 65.388 C 339.684 61.131,339.678 61.837,343.867 57.877 C 345.773 56.075,349.508 52.371,352.167 49.648 C 354.825 46.924,358.514 43.234,360.364 41.448 C 362.214 39.661,365.904 35.977,368.564 33.259 C 371.224 30.542,374.903 26.852,376.739 25.059 C 381.976 19.948,387.906 14.010,391.426 10.352 C 393.200 8.509,395.855 5.881,397.326 4.514 C 399.267 2.709,400.000 1.750,400.000 1.014 C 400.000 -0.946,398.255 -0.304,395.486 2.674 C 394.119 4.145,391.491 6.800,389.648 8.574 C 385.990 12.094,380.052 18.024,374.941 23.261 C 373.148 25.097,369.458 28.776,366.741 31.436 C 364.023 34.096,360.339 37.786,358.552 39.636 C 356.766 41.486,353.076 45.175,350.352 47.833 C 347.629 50.492,343.925 54.227,342.123 56.133 C 338.163 60.322,338.869 60.316,334.612 56.200 C 332.677 54.330,330.929 52.800,330.725 52.800 C 330.522 52.800,329.296 51.720,328.000 50.400 C 326.704 49.080,325.521 48.000,325.371 48.000 C 325.220 48.000,324.434 47.415,323.624 46.700 C 321.473 44.803,319.247 43.085,318.050 42.400 C 317.474 42.070,316.711 41.485,316.354 41.100 C 315.998 40.715,315.452 40.400,315.141 40.400 C 314.831 40.400,314.317 40.040,314.000 39.600 C 313.683 39.160,313.175 38.800,312.872 38.800 C 312.569 38.800,311.817 38.260,311.200 37.600 C 310.583 36.940,309.874 36.400,309.623 36.400 C 309.372 36.400,308.811 36.069,308.377 35.664 C 307.942 35.259,307.095 34.675,306.493 34.367 C 305.892 34.058,305.109 33.489,304.753 33.103 C 304.397 32.716,303.895 32.400,303.636 32.400 C 303.378 32.400,302.780 32.040,302.308 31.600 C 301.836 31.160,301.213 30.800,300.925 30.800 C 300.636 30.800,300.400 30.620,300.400 30.400 C 300.400 30.180,300.040 30.000,299.600 30.000 C 299.160 30.000,298.800 29.820,298.800 29.600 C 298.800 29.380,298.522 29.200,298.183 29.200 C 297.844 29.200,297.180 28.840,296.708 28.400 C 296.236 27.960,295.613 27.600,295.325 27.600 C 295.036 27.600,294.800 27.420,294.800 27.200 C 294.800 26.980,294.440 26.800,294.000 26.800 C 293.560 26.800,293.200 26.620,293.200 26.400 C 293.200 26.180,292.885 25.994,292.500 25.987 C 292.115 25.980,291.451 25.710,291.024 25.387 C 290.596 25.064,289.921 24.800,289.524 24.800 C 289.126 24.800,288.800 24.620,288.800 24.400 C 288.800 24.180,288.440 24.000,288.000 24.000 C 287.560 24.000,287.200 23.820,287.200 23.600 C 287.200 23.380,286.840 23.200,286.400 23.200 C 285.960 23.200,285.600 23.020,285.600 22.800 C 285.600 22.580,285.240 22.400,284.800 22.400 C 284.360 22.400,284.000 22.220,284.000 22.000 C 284.000 21.780,283.717 21.600,283.371 21.600 C 281.142 21.600,281.517 20.472,284.883 17.063 C 286.707 15.215,289.657 12.195,291.438 10.352 C 293.218 8.508,296.143 5.605,297.938 3.900 C 301.662 0.361,301.815 0.000,299.586 0.000 C 298.110 0.000,297.761 0.228,295.486 2.674 C 294.119 4.145,291.492 6.800,289.648 8.574 C 287.804 10.348,284.612 13.465,282.553 15.500 C 279.052 18.961,276.800 20.253,276.800 18.800 C 276.800 18.580,276.440 18.400,276.000 18.400 C 275.560 18.400,275.200 18.220,275.200 18.000 C 275.200 17.780,274.750 17.600,274.200 17.600 C 273.650 17.600,273.200 17.420,273.200 17.200 C 273.200 16.980,272.851 16.800,272.424 16.800 C 271.997 16.800,271.536 16.620,271.400 16.400 C 271.264 16.180,270.713 16.000,270.176 16.000 C 269.639 16.000,269.200 15.820,269.200 15.600 C 269.200 15.380,268.838 15.200,268.395 15.200 C 267.952 15.200,267.277 15.041,266.895 14.847 C 265.721 14.250,264.281 13.714,262.400 13.176 C 261.410 12.893,260.429 12.512,260.220 12.330 C 260.011 12.149,259.347 12.000,258.744 12.000 C 258.141 12.000,257.536 11.820,257.400 11.600 C 257.264 11.380,256.724 11.200,256.200 11.200 C 255.676 11.200,255.136 11.020,255.000 10.800 C 254.864 10.580,254.221 10.400,253.571 10.400 C 252.921 10.400,252.077 10.242,251.695 10.049 C 250.239 9.314,248.098 8.813,245.300 8.554 C 243.705 8.406,242.400 8.131,242.400 7.943 C 242.400 7.754,241.680 7.600,240.800 7.600 C 239.920 7.600,239.200 7.420,239.200 7.200 C 239.200 6.980,238.210 6.800,237.000 6.800 C 235.790 6.800,234.800 6.620,234.800 6.400 C 234.800 6.178,233.733 6.000,232.400 6.000 C 231.067 6.000,230.000 5.822,230.000 5.600 C 230.000 5.369,228.741 5.200,227.024 5.200 C 225.387 5.200,223.936 5.020,223.800 4.800 C 223.663 4.579,221.863 4.400,219.776 4.400 C 217.525 4.400,216.000 4.238,216.000 4.000 C 216.000 3.746,212.867 3.600,207.400 3.600 C 202.670 3.600,198.800 3.508,198.800 3.396 C 198.800 3.284,199.340 2.628,200.000 1.937 C 201.577 0.287,201.516 0.000,199.593 -0.000 C 198.211 -0.000,197.745 0.252,196.262 1.800 M168.515 104.034 C 171.086 105.206,170.990 104.014,171.096 136.000 C 171.149 151.950,171.239 165.431,171.296 165.958 C 171.394 166.861,171.526 166.798,173.600 164.865 C 174.810 163.737,175.922 162.811,176.071 162.807 C 176.221 162.803,176.581 162.566,176.871 162.281 C 177.742 161.426,181.114 159.200,181.539 159.200 C 181.756 159.200,181.993 159.064,182.067 158.898 C 182.193 158.613,186.763 156.306,188.700 155.551 C 189.195 155.358,190.005 155.041,190.500 154.846 C 191.364 154.505,193.086 154.025,196.300 153.228 C 201.720 151.884,214.249 151.647,220.200 152.776 C 221.520 153.026,223.276 153.333,224.103 153.458 C 224.929 153.583,225.705 153.845,225.826 154.042 C 225.948 154.239,226.476 154.400,227.000 154.400 C 227.524 154.400,228.064 154.580,228.200 154.800 C 228.336 155.020,228.778 155.200,229.183 155.200 C 229.588 155.200,230.945 155.740,232.200 156.400 C 233.455 157.060,234.733 157.600,235.041 157.600 C 235.348 157.600,235.600 157.780,235.600 158.000 C 235.600 158.220,235.870 158.400,236.200 158.400 C 236.530 158.400,236.800 158.580,236.800 158.800 C 236.800 159.020,236.993 159.200,237.228 159.200 C 238.423 159.200,245.598 165.459,248.018 168.612 C 249.213 170.170,251.200 173.147,251.200 173.380 C 251.200 173.510,251.617 174.287,252.126 175.108 C 252.635 175.929,253.475 177.680,253.992 179.000 C 254.508 180.320,255.055 181.580,255.208 181.800 C 255.360 182.020,255.613 182.650,255.769 183.200 C 255.926 183.750,256.234 184.830,256.454 185.600 C 259.687 196.928,259.897 200.947,259.956 252.531 C 260.003 294.272,260.033 293.506,258.314 295.224 L 257.138 296.400 244.731 296.400 C 230.701 296.400,230.469 296.352,229.616 293.283 C 229.347 292.315,229.190 277.497,229.162 250.600 C 229.119 208.296,228.842 199.178,227.559 197.820 C 227.362 197.611,227.200 197.024,227.200 196.515 C 227.200 196.006,227.036 195.277,226.835 194.895 C 226.634 194.513,225.998 193.179,225.421 191.932 C 222.924 186.530,218.709 182.700,213.700 181.281 C 212.765 181.017,211.325 180.608,210.500 180.374 C 207.778 179.600,196.009 180.276,193.000 181.379 C 189.780 182.560,186.675 184.047,184.937 185.243 C 182.756 186.744,177.600 191.951,177.600 192.653 C 177.600 192.954,177.465 193.201,177.300 193.203 C 177.135 193.205,176.802 193.610,176.560 194.103 C 176.317 194.596,175.707 195.810,175.203 196.800 C 174.699 197.790,174.111 199.050,173.897 199.600 C 173.682 200.150,173.348 200.913,173.153 201.295 C 172.959 201.677,172.800 202.294,172.800 202.666 C 172.800 203.039,172.631 203.896,172.424 204.572 C 171.223 208.496,171.151 210.997,171.076 251.600 C 171.003 291.609,170.974 293.043,170.234 294.266 C 168.979 296.340,168.555 296.400,155.212 296.400 L 142.862 296.400 141.665 295.204 C 139.902 293.441,139.953 296.578,140.082 197.400 C 140.212 97.319,140.000 105.517,142.497 104.130 C 143.687 103.469,167.086 103.383,168.515 104.034 M396.100 302.062 C 394.395 303.857,391.486 306.782,389.636 308.562 C 387.786 310.343,384.096 314.023,381.436 316.741 C 378.776 319.458,375.091 323.148,373.246 324.941 C 371.402 326.733,367.532 330.607,364.646 333.550 C 361.761 336.492,357.885 340.362,356.033 342.150 C 354.182 343.937,350.492 347.629,347.833 350.352 C 345.175 353.076,341.491 356.766,339.648 358.552 C 335.859 362.223,329.775 368.307,324.941 373.261 C 323.148 375.097,319.458 378.776,316.741 381.436 C 314.023 384.096,310.343 387.786,308.562 389.636 C 306.782 391.486,303.857 394.395,302.062 396.100 C 298.338 399.639,298.185 400.000,300.414 400.000 C 301.890 400.000,302.239 399.772,304.514 397.326 C 305.881 395.855,308.514 393.200,310.364 391.426 C 312.214 389.652,315.904 385.977,318.564 383.259 C 321.224 380.542,324.903 376.852,326.739 375.059 C 331.693 370.225,337.777 364.141,341.448 360.352 C 343.234 358.509,346.924 354.825,349.648 352.167 C 352.371 349.508,356.063 345.818,357.850 343.967 C 359.638 342.115,363.508 338.239,366.450 335.354 C 369.393 332.468,373.267 328.598,375.059 326.754 C 376.852 324.909,380.542 321.224,383.259 318.564 C 385.977 315.904,389.652 312.214,391.426 310.364 C 393.200 308.514,395.855 305.881,397.326 304.514 C 399.772 302.239,400.000 301.890,400.000 300.414 C 400.000 298.185,399.639 298.338,396.100 302.062 " stroke="none" fill="#040404" fill-rule="evenodd"></path><path id="path2" d="M142.600 104.064 C 141.779 104.516,140.425 105.996,140.409 106.460 C 140.404 106.603,141.012 106.108,141.760 105.360 L 143.120 104.000 155.538 104.000 C 167.886 104.000,167.961 104.005,169.015 104.912 C 170.679 106.342,170.740 107.519,170.770 138.365 C 170.799 168.858,170.773 168.006,171.643 166.933 C 172.012 166.479,172.031 166.348,171.700 166.547 C 171.303 166.785,171.199 163.035,171.193 148.324 C 171.176 104.253,171.238 105.275,168.515 104.034 C 167.197 103.434,143.697 103.461,142.600 104.064 M140.188 133.800 C 140.188 147.660,140.239 153.272,140.300 146.271 C 140.361 139.270,140.361 127.930,140.300 121.071 C 140.238 114.212,140.188 119.940,140.188 133.800 M200.876 152.340 C 200.368 152.483,204.097 152.600,209.161 152.600 C 214.226 152.600,218.062 152.478,217.685 152.328 C 216.814 151.982,202.110 151.993,200.876 152.340 M196.400 153.212 C 195.981 153.491,196.342 153.533,197.600 153.350 C 199.841 153.025,200.160 152.798,198.367 152.806 C 197.615 152.809,196.730 152.992,196.400 153.212 M218.833 152.947 C 218.925 153.028,219.879 153.188,220.954 153.304 C 222.149 153.432,222.693 153.378,222.354 153.163 C 221.835 152.835,218.471 152.628,218.833 152.947 M193.200 154.006 C 192.778 154.282,193.015 154.323,194.000 154.142 C 195.725 153.825,196.051 153.598,194.767 153.606 C 194.235 153.609,193.530 153.789,193.200 154.006 M223.233 153.743 C 223.676 154.122,226.017 154.351,225.796 153.994 C 225.662 153.777,224.993 153.600,224.310 153.600 C 223.626 153.600,223.142 153.664,223.233 153.743 M190.600 154.800 C 190.308 155.273,190.699 155.273,191.800 154.800 C 192.571 154.469,192.569 154.455,191.724 154.428 C 191.242 154.413,190.736 154.580,190.600 154.800 M229.400 155.600 C 230.501 156.073,230.892 156.073,230.600 155.600 C 230.464 155.380,229.958 155.213,229.476 155.228 C 228.631 155.255,228.629 155.269,229.400 155.600 M180.000 160.033 L 179.000 160.848 180.300 160.214 C 181.015 159.865,181.600 159.494,181.600 159.390 C 181.600 158.992,180.963 159.248,180.000 160.033 M237.753 159.688 C 238.168 159.970,239.383 160.879,240.453 161.709 C 241.524 162.539,242.399 163.079,242.398 162.909 C 242.395 162.546,238.200 159.452,237.487 159.288 C 237.219 159.226,237.339 159.406,237.753 159.688 M140.194 209.800 C 140.194 236.860,140.242 247.989,140.300 234.531 C 140.358 221.073,140.358 198.933,140.300 185.331 C 140.242 171.729,140.194 182.740,140.194 209.800 M177.829 161.429 C 177.405 161.738,177.136 162.069,177.230 162.163 C 177.324 162.257,177.748 162.081,178.171 161.771 C 178.595 161.462,178.864 161.131,178.770 161.037 C 178.676 160.943,178.252 161.119,177.829 161.429 M174.914 163.684 C 174.081 164.391,173.325 165.021,173.233 165.084 C 173.142 165.148,173.142 165.275,173.234 165.368 C 173.327 165.460,174.205 164.830,175.186 163.968 C 176.168 163.105,176.849 162.400,176.699 162.400 C 176.550 162.400,175.747 162.978,174.914 163.684 M244.000 164.600 C 244.746 165.370,245.447 166.000,245.557 166.000 C 245.667 166.000,245.146 165.370,244.400 164.600 C 243.654 163.830,242.953 163.200,242.843 163.200 C 242.733 163.200,243.254 163.830,244.000 164.600 M246.000 166.617 C 246.000 166.737,246.475 167.322,247.056 167.917 L 248.112 169.000 247.229 167.700 C 246.394 166.472,246.000 166.125,246.000 166.617 M249.401 171.148 C 250.170 172.219,250.804 173.254,250.809 173.448 C 250.814 173.641,251.186 174.250,251.636 174.800 C 252.297 175.608,252.263 175.443,251.459 173.944 C 250.044 171.302,248.650 169.211,248.301 169.205 C 248.136 169.202,248.631 170.076,249.401 171.148 M201.500 179.896 C 202.875 179.974,205.125 179.974,206.500 179.896 C 207.875 179.818,206.750 179.754,204.000 179.754 C 201.250 179.754,200.125 179.818,201.500 179.896 M195.800 180.400 L 194.600 180.705 195.800 180.747 C 196.460 180.769,197.270 180.613,197.600 180.400 C 198.343 179.920,197.687 179.920,195.800 180.400 M210.400 180.400 C 210.730 180.613,211.450 180.773,212.000 180.754 L 213.000 180.720 212.000 180.400 C 210.458 179.906,209.636 179.906,210.400 180.400 M192.600 181.094 C 189.338 181.916,183.009 185.839,180.225 188.765 C 178.408 190.675,179.355 190.223,181.493 188.160 C 184.476 185.282,186.956 183.742,191.400 182.008 C 194.174 180.925,194.621 180.585,192.600 181.094 M214.000 181.255 C 218.506 183.211,220.943 185.000,223.050 187.900 C 224.467 189.850,225.233 190.664,224.557 189.500 C 222.300 185.619,217.607 181.802,214.200 181.077 C 213.056 180.833,213.047 180.842,214.000 181.255 M255.612 184.000 C 255.612 184.330,255.787 184.870,256.000 185.200 C 256.345 185.733,256.388 185.733,256.388 185.200 C 256.388 184.870,256.213 184.330,256.000 184.000 C 255.655 183.467,255.612 183.467,255.612 184.000 M256.412 186.800 C 256.412 187.130,256.587 187.670,256.800 188.000 C 257.145 188.533,257.188 188.533,257.188 188.000 C 257.188 187.670,257.013 187.130,256.800 186.800 C 256.455 186.267,256.412 186.267,256.412 186.800 M257.212 190.000 C 257.212 190.330,257.387 190.870,257.600 191.200 C 257.945 191.733,257.988 191.733,257.988 191.200 C 257.988 190.870,257.813 190.330,257.600 190.000 C 257.255 189.467,257.212 189.467,257.212 190.000 M258.068 193.800 C 258.074 194.240,258.224 195.050,258.400 195.600 L 258.720 196.600 258.732 195.600 C 258.738 195.050,258.589 194.240,258.400 193.800 L 258.056 193.000 258.068 193.800 M175.786 194.900 L 175.152 196.200 175.967 195.200 C 176.752 194.237,177.008 193.600,176.610 193.600 C 176.506 193.600,176.135 194.185,175.786 194.900 M259.053 201.000 C 259.195 202.320,259.376 203.475,259.456 203.567 C 259.804 203.968,259.548 199.739,259.191 199.200 C 258.920 198.789,258.876 199.357,259.053 201.000 M228.034 200.200 C 228.022 200.640,228.187 201.270,228.400 201.600 C 228.914 202.395,228.914 201.396,228.400 200.200 L 228.056 199.400 228.034 200.200 M172.200 203.600 C 172.050 204.073,172.017 204.550,172.127 204.660 C 172.237 204.770,172.450 204.473,172.600 204.000 C 172.750 203.527,172.783 203.050,172.673 202.940 C 172.563 202.830,172.350 203.127,172.200 203.600 M229.104 244.200 C 229.161 266.200,229.257 286.090,229.319 288.400 C 229.380 290.710,229.453 273.610,229.480 250.400 C 229.507 227.190,229.411 207.300,229.265 206.200 C 229.119 205.100,229.047 222.200,229.104 244.200 M171.400 207.200 C 171.248 207.891,171.214 208.547,171.324 208.657 C 171.434 208.767,171.648 208.291,171.800 207.600 C 171.952 206.909,171.986 206.253,171.876 206.143 C 171.766 206.033,171.552 206.509,171.400 207.200 M170.662 215.500 C 170.520 217.645,170.403 236.109,170.402 256.531 L 170.400 293.662 169.231 294.831 L 168.062 296.000 155.850 296.000 C 142.880 296.000,142.230 295.915,141.085 294.070 C 140.720 293.481,140.416 293.211,140.411 293.469 C 140.405 293.727,140.954 294.492,141.631 295.169 L 142.862 296.400 155.212 296.400 C 168.555 296.400,168.979 296.340,170.234 294.266 C 170.922 293.129,171.728 211.600,171.051 211.600 C 170.980 211.600,170.804 213.355,170.662 215.500 M259.780 225.800 C 259.780 233.500,259.834 236.593,259.899 232.674 C 259.965 228.755,259.965 222.455,259.899 218.674 C 259.834 214.893,259.780 218.100,259.780 225.800 M259.789 266.400 C 259.789 280.590,259.839 286.395,259.900 279.300 C 259.961 272.205,259.961 260.595,259.900 253.500 C 259.839 246.405,259.789 252.210,259.789 266.400 M140.182 276.000 C 140.182 284.470,140.235 287.935,140.299 283.700 C 140.364 279.465,140.364 272.535,140.299 268.300 C 140.235 264.065,140.182 267.530,140.182 276.000 M231.862 296.100 C 231.964 296.265,237.696 296.400,244.600 296.400 C 251.504 296.400,257.236 296.265,257.338 296.100 C 257.440 295.935,251.708 295.800,244.600 295.800 C 237.492 295.800,231.760 295.935,231.862 296.100 " stroke="none" fill="#343434" fill-rule="evenodd"></path><path id="path3" d="M167.022 104.427 C 167.694 104.623,168.638 105.202,169.120 105.714 L 169.995 106.646 170.100 137.223 L 170.205 167.800 170.303 137.141 L 170.400 106.483 168.986 105.241 C 168.208 104.559,167.173 104.016,166.686 104.036 C 165.984 104.065,166.053 104.146,167.022 104.427 M202.400 152.813 C 201.567 152.996,202.295 153.034,204.200 152.906 C 205.960 152.789,207.475 152.626,207.567 152.546 C 207.861 152.288,203.848 152.495,202.400 152.813 M210.433 152.544 C 210.525 152.624,212.220 152.785,214.200 152.902 C 216.216 153.021,217.272 152.979,216.600 152.805 C 215.400 152.495,210.119 152.272,210.433 152.544 M197.200 153.600 C 196.396 153.857,196.357 153.923,197.000 153.932 C 197.440 153.938,198.160 153.789,198.600 153.600 C 199.619 153.162,198.568 153.162,197.200 153.600 M220.400 153.600 C 221.768 154.038,222.819 154.038,221.800 153.600 C 221.360 153.411,220.640 153.262,220.200 153.268 C 219.557 153.277,219.596 153.343,220.400 153.600 M224.000 154.400 C 224.330 154.613,224.960 154.778,225.400 154.766 L 226.200 154.744 225.400 154.400 C 224.204 153.886,223.205 153.886,224.000 154.400 M239.600 161.318 C 239.600 161.420,240.447 162.197,241.481 163.045 C 242.516 163.893,243.234 164.378,243.076 164.123 C 242.740 163.579,239.600 161.045,239.600 161.318 M173.281 165.803 C 171.676 167.231,170.469 168.400,170.598 168.400 C 170.728 168.400,172.175 167.230,173.815 165.800 C 175.454 164.370,176.662 163.201,176.498 163.203 C 176.334 163.205,174.887 164.375,173.281 165.803 M245.000 166.400 C 245.859 167.280,246.652 168.000,246.762 168.000 C 246.872 168.000,246.259 167.280,245.400 166.400 C 244.541 165.520,243.748 164.800,243.638 164.800 C 243.528 164.800,244.141 165.520,245.000 166.400 M247.775 169.732 C 248.391 170.539,248.976 171.200,249.075 171.200 C 249.353 171.200,247.621 168.860,247.109 168.544 C 246.859 168.389,247.159 168.924,247.775 169.732 M250.600 174.000 C 250.941 174.660,251.311 175.200,251.421 175.200 C 251.531 175.200,251.341 174.660,251.000 174.000 C 250.659 173.340,250.289 172.800,250.179 172.800 C 250.069 172.800,250.259 173.340,250.600 174.000 M201.600 179.190 C 199.940 179.379,200.509 179.447,203.917 179.470 C 206.401 179.487,208.381 179.458,208.317 179.406 C 207.962 179.119,203.488 178.975,201.600 179.190 M195.400 180.000 C 194.381 180.438,195.432 180.438,196.800 180.000 C 197.604 179.743,197.643 179.677,197.000 179.668 C 196.560 179.662,195.840 179.811,195.400 180.000 M210.433 179.744 C 210.525 179.823,211.140 180.008,211.800 180.156 C 212.676 180.352,212.838 180.315,212.400 180.018 C 211.860 179.653,210.032 179.398,210.433 179.744 M254.410 181.833 C 254.429 182.512,256.366 187.806,256.383 187.227 C 256.392 186.911,256.017 185.561,255.549 184.227 C 254.693 181.788,254.391 181.153,254.410 181.833 M217.600 182.154 C 217.600 182.239,218.095 182.627,218.700 183.016 L 219.800 183.724 219.038 182.862 C 218.364 182.099,217.600 181.723,217.600 182.154 M221.778 185.600 C 224.404 188.556,224.674 188.809,223.700 187.400 C 223.243 186.740,222.184 185.570,221.347 184.800 C 220.130 183.682,220.217 183.842,221.778 185.600 M180.786 187.900 L 178.600 190.200 180.900 188.014 C 183.037 185.982,183.383 185.600,183.086 185.600 C 183.024 185.600,181.989 186.635,180.786 187.900 M256.806 190.233 C 256.809 190.655,256.995 191.270,257.218 191.600 C 257.515 192.038,257.552 191.876,257.356 191.000 C 257.027 189.529,256.798 189.210,256.806 190.233 M257.693 194.000 C 257.693 194.770,257.775 195.085,257.876 194.700 C 257.976 194.315,257.976 193.685,257.876 193.300 C 257.775 192.915,257.693 193.230,257.693 194.000 M227.844 197.000 C 228.173 198.471,228.402 198.790,228.394 197.767 C 228.391 197.345,228.205 196.730,227.982 196.400 C 227.685 195.962,227.648 196.124,227.844 197.000 M258.447 199.833 C 258.473 200.915,258.635 202.340,258.806 203.000 C 258.988 203.703,259.028 202.958,258.903 201.200 C 258.657 197.759,258.377 196.918,258.447 199.833 M228.682 200.821 C 228.808 201.799,228.975 202.675,229.055 202.767 C 229.381 203.142,229.160 200.155,228.821 199.621 C 228.584 199.246,228.535 199.670,228.682 200.821 M229.293 204.800 C 229.293 205.570,229.375 205.885,229.476 205.500 C 229.576 205.115,229.576 204.485,229.476 204.100 C 229.375 203.715,229.293 204.030,229.293 204.800 M229.793 249.600 C 229.793 273.470,229.841 283.235,229.900 271.300 C 229.959 259.365,229.959 239.835,229.900 227.900 C 229.841 215.965,229.793 225.730,229.793 249.600 M170.901 208.200 C 170.905 209.080,170.987 209.393,171.083 208.895 C 171.179 208.398,171.175 207.678,171.075 207.295 C 170.975 206.913,170.896 207.320,170.901 208.200 M259.382 225.000 C 259.382 233.580,259.435 237.033,259.500 232.674 C 259.564 228.314,259.564 221.294,259.499 217.074 C 259.435 212.853,259.382 216.420,259.382 225.000 M170.493 211.600 C 170.493 212.370,170.575 212.685,170.676 212.300 C 170.776 211.915,170.776 211.285,170.676 210.900 C 170.575 210.515,170.493 210.830,170.493 211.600 M170.098 254.369 C 170.007 290.483,169.950 293.398,169.315 294.169 L 168.630 295.000 169.517 294.187 L 170.404 293.374 170.300 254.387 L 170.196 215.400 170.098 254.369 M259.388 267.000 C 259.388 281.080,259.439 286.782,259.500 279.671 C 259.561 272.560,259.561 261.040,259.500 254.071 C 259.438 247.102,259.388 252.920,259.388 267.000 M230.352 293.900 C 230.949 295.028,232.609 296.142,233.287 295.869 C 233.594 295.746,233.503 295.650,233.060 295.632 C 232.654 295.614,231.771 295.015,231.098 294.300 C 230.245 293.392,230.020 293.272,230.352 293.900 M258.397 294.006 C 258.160 294.449,257.388 295.064,256.683 295.373 C 255.977 295.682,255.675 295.949,256.011 295.967 C 256.810 296.010,258.284 294.964,258.811 293.979 C 259.040 293.551,259.138 293.200,259.028 293.200 C 258.918 293.200,258.634 293.563,258.397 294.006 " stroke="none" fill="#8c8c8c" fill-rule="evenodd"></path><path id="path4" d="M140.597 200.000 C 140.597 251.370,140.643 272.385,140.700 246.700 C 140.757 221.015,140.757 178.985,140.700 153.300 C 140.643 127.615,140.597 148.630,140.597 200.000 M170.573 118.400 C 170.573 123.790,170.630 125.995,170.699 123.300 C 170.768 120.605,170.768 116.195,170.699 113.500 C 170.630 110.805,170.573 113.010,170.573 118.400 M170.496 149.500 C 170.443 159.675,170.552 168.000,170.738 168.000 C 170.924 168.000,171.419 167.595,171.838 167.100 L 172.600 166.200 171.704 166.958 L 170.808 167.717 170.700 149.358 L 170.592 131.000 170.496 149.500 M243.983 164.900 C 244.964 165.945,245.819 166.800,245.883 166.800 C 246.184 166.800,245.866 166.441,244.100 164.783 L 242.200 163.000 243.983 164.900 M259.337 206.600 C 259.339 208.360,259.409 209.030,259.493 208.089 C 259.578 207.149,259.577 205.709,259.491 204.889 C 259.405 204.070,259.336 204.840,259.337 206.600 M170.520 214.800 C 170.520 216.010,170.595 216.505,170.687 215.900 C 170.778 215.295,170.778 214.305,170.687 213.700 C 170.595 213.095,170.520 213.590,170.520 214.800 " stroke="none" fill="#7c7c7c" fill-rule="evenodd"></path></g></svg>
